
  <svg width='867px'
       height='435.35477246198917px'
       viewBox='0 0 867 435.35477246198917'
       xmlns='http://www.w3.org/2000/svg'
       xmlns:xlink="http://www.w3.org/1999/xlink">

    <style type='text/css'>
    .keycap .border { stroke: black; stroke-width: 2; }
    .keycap .inner.border { stroke: rgba(0,0,0,.1); }
    </style>
    <defs>
      <linearGradient id="DCS">
        <stop offset="0%" stop-color="black" stop-opacity="0"/>
        <stop offset="40%" stop-color="black" stop-opacity="0.1"/>
        <stop offset="60%" stop-color="black" stop-opacity="0.1"/>
        <stop offset="100%" stop-color="black" stop-opacity="0"/>
      </linearGradient>
      <linearGradient id="SPACE" x1="0%" x2="0%" y1="0%" y2="100%">
        <stop offset="0%" stop-color="black" stop-opacity="0.1"/>
        <stop offset="20%" stop-color="black" stop-opacity="0.0"/>
        <stop offset="40%" stop-color="black" stop-opacity="0.0"/>
        <stop offset="100%" stop-color="black" stop-opacity="0.1"/>
      </linearGradient>
      <radialGradient id="DSA">
        <stop offset="0%" stop-color="black" stop-opacity="0.1"/>
        <stop offset="10%" stop-color="black" stop-opacity="0.1"/>
        <stop offset="100%" stop-color="black" stop-opacity="0"/>
      </radialGradient>
      <radialGradient id="SA" xlink:href="#DSA" />
    </defs>

    <g transform='translate(10,10)'>
      <rect width="847" height="415.35477246198917"
            stroke="#ddd" stroke-width="1" fill="#eeeeee" rx="6"/>
      <g transform='translate(5,5)'>
        
  <g class='  keycap'
  >

  
    <!-- Outer Border -->
    <rect x="190" y="1"
          width="52" height="52"
          rx="5" fill="#cccccc" class="outer border"/>
    
    <!-- Outer Fill -->
    <rect x="190" y="1"
          width="52" height="52"
          rx="5" fill="#cccccc"/>
    

    
      <!-- Inner Border -->
      <rect x="196" y="4"
            width="40" height="40"
            rx="5" fill="#fcfcfc" class="inner border"/>
      
      <!-- Inner Fill -->
      <rect x="196" y="4"
            width="40" height="40"
            rx="5" fill="#fcfcfc"/>
      
      

     
   
  </g>

  <g class='  keycap'
  >

  
    <!-- Outer Border -->
    <rect x="622" y="1"
          width="52" height="52"
          rx="5" fill="#cccccc" class="outer border"/>
    
    <!-- Outer Fill -->
    <rect x="622" y="1"
          width="52" height="52"
          rx="5" fill="#cccccc"/>
    

    
      <!-- Inner Border -->
      <rect x="628" y="4"
            width="40" height="40"
            rx="5" fill="#fcfcfc" class="inner border"/>
      
      <!-- Inner Fill -->
      <rect x="628" y="4"
            width="40" height="40"
            rx="5" fill="#fcfcfc"/>
      
      

     
   
  </g>

  <g class='  keycap'
  >

  
    <!-- Outer Border -->
    <rect x="136" y="7.75"
          width="52" height="52"
          rx="5" fill="#cccccc" class="outer border"/>
    
    <!-- Outer Fill -->
    <rect x="136" y="7.75"
          width="52" height="52"
          rx="5" fill="#cccccc"/>
    

    
      <!-- Inner Border -->
      <rect x="142" y="10.75"
            width="40" height="40"
            rx="5" fill="#fcfcfc" class="inner border"/>
      
      <!-- Inner Fill -->
      <rect x="142" y="10.75"
            width="40" height="40"
            rx="5" fill="#fcfcfc"/>
      
      

     
   
  </g>

  <g class='  keycap'
  >

  
    <!-- Outer Border -->
    <rect x="244" y="7.75"
          width="52" height="52"
          rx="5" fill="#cccccc" class="outer border"/>
    
    <!-- Outer Fill -->
    <rect x="244" y="7.75"
          width="52" height="52"
          rx="5" fill="#cccccc"/>
    

    
      <!-- Inner Border -->
      <rect x="250" y="10.75"
            width="40" height="40"
            rx="5" fill="#fcfcfc" class="inner border"/>
      
      <!-- Inner Fill -->
      <rect x="250" y="10.75"
            width="40" height="40"
            rx="5" fill="#fcfcfc"/>
      
      

     
   
  </g>

  <g class='  keycap'
  >

  
    <!-- Outer Border -->
    <rect x="568" y="7.75"
          width="52" height="52"
          rx="5" fill="#cccccc" class="outer border"/>
    
    <!-- Outer Fill -->
    <rect x="568" y="7.75"
          width="52" height="52"
          rx="5" fill="#cccccc"/>
    

    
      <!-- Inner Border -->
      <rect x="574" y="10.75"
            width="40" height="40"
            rx="5" fill="#fcfcfc" class="inner border"/>
      
      <!-- Inner Fill -->
      <rect x="574" y="10.75"
            width="40" height="40"
            rx="5" fill="#fcfcfc"/>
      
      

     
   
  </g>

  <g class='  keycap'
  >

  
    <!-- Outer Border -->
    <rect x="676" y="7.75"
          width="52" height="52"
          rx="5" fill="#cccccc" class="outer border"/>
    
    <!-- Outer Fill -->
    <rect x="676" y="7.75"
          width="52" height="52"
          rx="5" fill="#cccccc"/>
    

    
      <!-- Inner Border -->
      <rect x="682" y="10.75"
            width="40" height="40"
            rx="5" fill="#fcfcfc" class="inner border"/>
      
      <!-- Inner Fill -->
      <rect x="682" y="10.75"
            width="40" height="40"
            rx="5" fill="#fcfcfc"/>
      
      

     
   
  </g>

  <g class='  keycap'
  >

  
    <!-- Outer Border -->
    <rect x="298" y="14.5"
          width="52" height="52"
          rx="5" fill="#cccccc" class="outer border"/>
    
    <!-- Outer Fill -->
    <rect x="298" y="14.5"
          width="52" height="52"
          rx="5" fill="#cccccc"/>
    

    
      <!-- Inner Border -->
      <rect x="304" y="17.5"
            width="40" height="40"
            rx="5" fill="#fcfcfc" class="inner border"/>
      
      <!-- Inner Fill -->
      <rect x="304" y="17.5"
            width="40" height="40"
            rx="5" fill="#fcfcfc"/>
      
      

     
   
  </g>

  <g class='  keycap'
  >

  
    <!-- Outer Border -->
    <rect x="514" y="14.5"
          width="52" height="52"
          rx="5" fill="#cccccc" class="outer border"/>
    
    <!-- Outer Fill -->
    <rect x="514" y="14.5"
          width="52" height="52"
          rx="5" fill="#cccccc"/>
    

    
      <!-- Inner Border -->
      <rect x="520" y="17.5"
            width="40" height="40"
            rx="5" fill="#fcfcfc" class="inner border"/>
      
      <!-- Inner Fill -->
      <rect x="520" y="17.5"
            width="40" height="40"
            rx="5" fill="#fcfcfc"/>
      
      

     
   
  </g>

  <g class='  keycap'
  >

  
    <!-- Outer Border -->
    <rect x="28" y="21.25"
          width="52" height="52"
          rx="5" fill="#cccccc" class="outer border"/>
    
    <!-- Outer Fill -->
    <rect x="28" y="21.25"
          width="52" height="52"
          rx="5" fill="#cccccc"/>
    

    
      <!-- Inner Border -->
      <rect x="34" y="24.25"
            width="40" height="40"
            rx="5" fill="#fcfcfc" class="inner border"/>
      
      <!-- Inner Fill -->
      <rect x="34" y="24.25"
            width="40" height="40"
            rx="5" fill="#fcfcfc"/>
      
      

     
   
  </g>

  <g class='  keycap'
  >

  
    <!-- Outer Border -->
    <rect x="82" y="21.25"
          width="52" height="52"
          rx="5" fill="#cccccc" class="outer border"/>
    
    <!-- Outer Fill -->
    <rect x="82" y="21.25"
          width="52" height="52"
          rx="5" fill="#cccccc"/>
    

    
      <!-- Inner Border -->
      <rect x="88" y="24.25"
            width="40" height="40"
            rx="5" fill="#fcfcfc" class="inner border"/>
      
      <!-- Inner Fill -->
      <rect x="88" y="24.25"
            width="40" height="40"
            rx="5" fill="#fcfcfc"/>
      
      

     
   
  </g>

  <g class='  keycap'
  >

  
    <!-- Outer Border -->
    <rect x="730" y="21.25"
          width="52" height="52"
          rx="5" fill="#cccccc" class="outer border"/>
    
    <!-- Outer Fill -->
    <rect x="730" y="21.25"
          width="52" height="52"
          rx="5" fill="#cccccc"/>
    

    
      <!-- Inner Border -->
      <rect x="736" y="24.25"
            width="40" height="40"
            rx="5" fill="#fcfcfc" class="inner border"/>
      
      <!-- Inner Fill -->
      <rect x="736" y="24.25"
            width="40" height="40"
            rx="5" fill="#fcfcfc"/>
      
      

     
   
  </g>

  <g class='  keycap'
  >

  
    <!-- Outer Border -->
    <rect x="784" y="21.25"
          width="52" height="52"
          rx="5" fill="#cccccc" class="outer border"/>
    
    <!-- Outer Fill -->
    <rect x="784" y="21.25"
          width="52" height="52"
          rx="5" fill="#cccccc"/>
    

    
      <!-- Inner Border -->
      <rect x="790" y="24.25"
            width="40" height="40"
            rx="5" fill="#fcfcfc" class="inner border"/>
      
      <!-- Inner Fill -->
      <rect x="790" y="24.25"
            width="40" height="40"
            rx="5" fill="#fcfcfc"/>
      
      

     
   
  </g>

  <g class='  keycap'
  >

  
    <!-- Outer Border -->
    <rect x="190" y="55"
          width="52" height="52"
          rx="5" fill="#cccccc" class="outer border"/>
    
    <!-- Outer Fill -->
    <rect x="190" y="55"
          width="52" height="52"
          rx="5" fill="#cccccc"/>
    

    
      <!-- Inner Border -->
      <rect x="196" y="58"
            width="40" height="40"
            rx="5" fill="#fcfcfc" class="inner border"/>
      
      <!-- Inner Fill -->
      <rect x="196" y="58"
            width="40" height="40"
            rx="5" fill="#fcfcfc"/>
      
      

     
   
  </g>

  <g class='  keycap'
  >

  
    <!-- Outer Border -->
    <rect x="622" y="55"
          width="52" height="52"
          rx="5" fill="#cccccc" class="outer border"/>
    
    <!-- Outer Fill -->
    <rect x="622" y="55"
          width="52" height="52"
          rx="5" fill="#cccccc"/>
    

    
      <!-- Inner Border -->
      <rect x="628" y="58"
            width="40" height="40"
            rx="5" fill="#fcfcfc" class="inner border"/>
      
      <!-- Inner Fill -->
      <rect x="628" y="58"
            width="40" height="40"
            rx="5" fill="#fcfcfc"/>
      
      

     
   
  </g>

  <g class='  keycap'
  >

  
    <!-- Outer Border -->
    <rect x="136" y="61.75"
          width="52" height="52"
          rx="5" fill="#cccccc" class="outer border"/>
    
    <!-- Outer Fill -->
    <rect x="136" y="61.75"
          width="52" height="52"
          rx="5" fill="#cccccc"/>
    

    
      <!-- Inner Border -->
      <rect x="142" y="64.75"
            width="40" height="40"
            rx="5" fill="#fcfcfc" class="inner border"/>
      
      <!-- Inner Fill -->
      <rect x="142" y="64.75"
            width="40" height="40"
            rx="5" fill="#fcfcfc"/>
      
      

     
   
  </g>

  <g class='  keycap'
  >

  
    <!-- Outer Border -->
    <rect x="244" y="61.75"
          width="52" height="52"
          rx="5" fill="#cccccc" class="outer border"/>
    
    <!-- Outer Fill -->
    <rect x="244" y="61.75"
          width="52" height="52"
          rx="5" fill="#cccccc"/>
    

    
      <!-- Inner Border -->
      <rect x="250" y="64.75"
            width="40" height="40"
            rx="5" fill="#fcfcfc" class="inner border"/>
      
      <!-- Inner Fill -->
      <rect x="250" y="64.75"
            width="40" height="40"
            rx="5" fill="#fcfcfc"/>
      
      

     
   
  </g>

  <g class='  keycap'
  >

  
    <!-- Outer Border -->
    <rect x="568" y="61.75"
          width="52" height="52"
          rx="5" fill="#cccccc" class="outer border"/>
    
    <!-- Outer Fill -->
    <rect x="568" y="61.75"
          width="52" height="52"
          rx="5" fill="#cccccc"/>
    

    
      <!-- Inner Border -->
      <rect x="574" y="64.75"
            width="40" height="40"
            rx="5" fill="#fcfcfc" class="inner border"/>
      
      <!-- Inner Fill -->
      <rect x="574" y="64.75"
            width="40" height="40"
            rx="5" fill="#fcfcfc"/>
      
      

     
   
  </g>

  <g class='  keycap'
  >

  
    <!-- Outer Border -->
    <rect x="676" y="61.75"
          width="52" height="52"
          rx="5" fill="#cccccc" class="outer border"/>
    
    <!-- Outer Fill -->
    <rect x="676" y="61.75"
          width="52" height="52"
          rx="5" fill="#cccccc"/>
    

    
      <!-- Inner Border -->
      <rect x="682" y="64.75"
            width="40" height="40"
            rx="5" fill="#fcfcfc" class="inner border"/>
      
      <!-- Inner Fill -->
      <rect x="682" y="64.75"
            width="40" height="40"
            rx="5" fill="#fcfcfc"/>
      
      

     
   
  </g>

  <g class='  keycap'
  >

  
    <!-- Outer Border -->
    <rect x="298" y="68.5"
          width="52" height="52"
          rx="5" fill="#cccccc" class="outer border"/>
    
    <!-- Outer Fill -->
    <rect x="298" y="68.5"
          width="52" height="52"
          rx="5" fill="#cccccc"/>
    

    
      <!-- Inner Border -->
      <rect x="304" y="71.5"
            width="40" height="40"
            rx="5" fill="#fcfcfc" class="inner border"/>
      
      <!-- Inner Fill -->
      <rect x="304" y="71.5"
            width="40" height="40"
            rx="5" fill="#fcfcfc"/>
      
      

     
   
  </g>

  <g class='  keycap'
  >

  
    <!-- Outer Border -->
    <rect x="514" y="68.5"
          width="52" height="52"
          rx="5" fill="#cccccc" class="outer border"/>
    
    <!-- Outer Fill -->
    <rect x="514" y="68.5"
          width="52" height="52"
          rx="5" fill="#cccccc"/>
    

    
      <!-- Inner Border -->
      <rect x="520" y="71.5"
            width="40" height="40"
            rx="5" fill="#fcfcfc" class="inner border"/>
      
      <!-- Inner Fill -->
      <rect x="520" y="71.5"
            width="40" height="40"
            rx="5" fill="#fcfcfc"/>
      
      

     
   
  </g>

  <g class='  keycap'
  >

  
    <!-- Outer Border -->
    <rect x="28" y="75.25"
          width="52" height="52"
          rx="5" fill="#cccccc" class="outer border"/>
    
    <!-- Outer Fill -->
    <rect x="28" y="75.25"
          width="52" height="52"
          rx="5" fill="#cccccc"/>
    

    
      <!-- Inner Border -->
      <rect x="34" y="78.25"
            width="40" height="40"
            rx="5" fill="#fcfcfc" class="inner border"/>
      
      <!-- Inner Fill -->
      <rect x="34" y="78.25"
            width="40" height="40"
            rx="5" fill="#fcfcfc"/>
      
      

     
   
  </g>

  <g class='  keycap'
  >

  
    <!-- Outer Border -->
    <rect x="82" y="75.25"
          width="52" height="52"
          rx="5" fill="#cccccc" class="outer border"/>
    
    <!-- Outer Fill -->
    <rect x="82" y="75.25"
          width="52" height="52"
          rx="5" fill="#cccccc"/>
    

    
      <!-- Inner Border -->
      <rect x="88" y="78.25"
            width="40" height="40"
            rx="5" fill="#fcfcfc" class="inner border"/>
      
      <!-- Inner Fill -->
      <rect x="88" y="78.25"
            width="40" height="40"
            rx="5" fill="#fcfcfc"/>
      
      

     
   
  </g>

  <g class='  keycap'
  >

  
    <!-- Outer Border -->
    <rect x="730" y="75.25"
          width="52" height="52"
          rx="5" fill="#cccccc" class="outer border"/>
    
    <!-- Outer Fill -->
    <rect x="730" y="75.25"
          width="52" height="52"
          rx="5" fill="#cccccc"/>
    

    
      <!-- Inner Border -->
      <rect x="736" y="78.25"
            width="40" height="40"
            rx="5" fill="#fcfcfc" class="inner border"/>
      
      <!-- Inner Fill -->
      <rect x="736" y="78.25"
            width="40" height="40"
            rx="5" fill="#fcfcfc"/>
      
      

     
   
  </g>

  <g class='  keycap'
  >

  
    <!-- Outer Border -->
    <rect x="784" y="75.25"
          width="52" height="52"
          rx="5" fill="#cccccc" class="outer border"/>
    
    <!-- Outer Fill -->
    <rect x="784" y="75.25"
          width="52" height="52"
          rx="5" fill="#cccccc"/>
    

    
      <!-- Inner Border -->
      <rect x="790" y="78.25"
            width="40" height="40"
            rx="5" fill="#fcfcfc" class="inner border"/>
      
      <!-- Inner Fill -->
      <rect x="790" y="78.25"
            width="40" height="40"
            rx="5" fill="#fcfcfc"/>
      
      

     
   
  </g>

  <g class='  keycap'
  >

  
    <!-- Outer Border -->
    <rect x="190" y="109"
          width="52" height="52"
          rx="5" fill="#cccccc" class="outer border"/>
    
    <!-- Outer Fill -->
    <rect x="190" y="109"
          width="52" height="52"
          rx="5" fill="#cccccc"/>
    

    
      <!-- Inner Border -->
      <rect x="196" y="112"
            width="40" height="40"
            rx="5" fill="#fcfcfc" class="inner border"/>
      
      <!-- Inner Fill -->
      <rect x="196" y="112"
            width="40" height="40"
            rx="5" fill="#fcfcfc"/>
      
      

     
   
  </g>

  <g class='  keycap'
  >

  
    <!-- Outer Border -->
    <rect x="622" y="109"
          width="52" height="52"
          rx="5" fill="#cccccc" class="outer border"/>
    
    <!-- Outer Fill -->
    <rect x="622" y="109"
          width="52" height="52"
          rx="5" fill="#cccccc"/>
    

    
      <!-- Inner Border -->
      <rect x="628" y="112"
            width="40" height="40"
            rx="5" fill="#fcfcfc" class="inner border"/>
      
      <!-- Inner Fill -->
      <rect x="628" y="112"
            width="40" height="40"
            rx="5" fill="#fcfcfc"/>
      
      

     
   
  </g>

  <g class='  keycap'
  >

  
    <!-- Outer Border -->
    <rect x="136" y="115.75"
          width="52" height="52"
          rx="5" fill="#cccccc" class="outer border"/>
    
    <!-- Outer Fill -->
    <rect x="136" y="115.75"
          width="52" height="52"
          rx="5" fill="#cccccc"/>
    

    
      <!-- Inner Border -->
      <rect x="142" y="118.75"
            width="40" height="40"
            rx="5" fill="#fcfcfc" class="inner border"/>
      
      <!-- Inner Fill -->
      <rect x="142" y="118.75"
            width="40" height="40"
            rx="5" fill="#fcfcfc"/>
      
      

     
   
  </g>

  <g class='  keycap'
  >

  
    <!-- Outer Border -->
    <rect x="244" y="115.75"
          width="52" height="52"
          rx="5" fill="#cccccc" class="outer border"/>
    
    <!-- Outer Fill -->
    <rect x="244" y="115.75"
          width="52" height="52"
          rx="5" fill="#cccccc"/>
    

    
      <!-- Inner Border -->
      <rect x="250" y="118.75"
            width="40" height="40"
            rx="5" fill="#fcfcfc" class="inner border"/>
      
      <!-- Inner Fill -->
      <rect x="250" y="118.75"
            width="40" height="40"
            rx="5" fill="#fcfcfc"/>
      
      

     
   
  </g>

  <g class='  keycap'
  >

  
    <!-- Outer Border -->
    <rect x="568" y="115.75"
          width="52" height="52"
          rx="5" fill="#cccccc" class="outer border"/>
    
    <!-- Outer Fill -->
    <rect x="568" y="115.75"
          width="52" height="52"
          rx="5" fill="#cccccc"/>
    

    
      <!-- Inner Border -->
      <rect x="574" y="118.75"
            width="40" height="40"
            rx="5" fill="#fcfcfc" class="inner border"/>
      
      <!-- Inner Fill -->
      <rect x="574" y="118.75"
            width="40" height="40"
            rx="5" fill="#fcfcfc"/>
      
      

     
   
  </g>

  <g class='  keycap'
  >

  
    <!-- Outer Border -->
    <rect x="676" y="115.75"
          width="52" height="52"
          rx="5" fill="#cccccc" class="outer border"/>
    
    <!-- Outer Fill -->
    <rect x="676" y="115.75"
          width="52" height="52"
          rx="5" fill="#cccccc"/>
    

    
      <!-- Inner Border -->
      <rect x="682" y="118.75"
            width="40" height="40"
            rx="5" fill="#fcfcfc" class="inner border"/>
      
      <!-- Inner Fill -->
      <rect x="682" y="118.75"
            width="40" height="40"
            rx="5" fill="#fcfcfc"/>
      
      

     
   
  </g>

  <g class='  keycap'
  >

  
    <!-- Outer Border -->
    <rect x="298" y="122.5"
          width="52" height="52"
          rx="5" fill="#cccccc" class="outer border"/>
    
    <!-- Outer Fill -->
    <rect x="298" y="122.5"
          width="52" height="52"
          rx="5" fill="#cccccc"/>
    

    
      <!-- Inner Border -->
      <rect x="304" y="125.5"
            width="40" height="40"
            rx="5" fill="#fcfcfc" class="inner border"/>
      
      <!-- Inner Fill -->
      <rect x="304" y="125.5"
            width="40" height="40"
            rx="5" fill="#fcfcfc"/>
      
      

     
   
  </g>

  <g class='  keycap'
  >

  
    <!-- Outer Border -->
    <rect x="514" y="122.5"
          width="52" height="52"
          rx="5" fill="#cccccc" class="outer border"/>
    
    <!-- Outer Fill -->
    <rect x="514" y="122.5"
          width="52" height="52"
          rx="5" fill="#cccccc"/>
    

    
      <!-- Inner Border -->
      <rect x="520" y="125.5"
            width="40" height="40"
            rx="5" fill="#fcfcfc" class="inner border"/>
      
      <!-- Inner Fill -->
      <rect x="520" y="125.5"
            width="40" height="40"
            rx="5" fill="#fcfcfc"/>
      
      

     
   
  </g>

  <g class='  keycap'
  >

  
    <!-- Outer Border -->
    <rect x="28" y="129.25"
          width="52" height="52"
          rx="5" fill="#cccccc" class="outer border"/>
    
    <!-- Outer Fill -->
    <rect x="28" y="129.25"
          width="52" height="52"
          rx="5" fill="#cccccc"/>
    

    
      <!-- Inner Border -->
      <rect x="34" y="132.25"
            width="40" height="40"
            rx="5" fill="#fcfcfc" class="inner border"/>
      
      <!-- Inner Fill -->
      <rect x="34" y="132.25"
            width="40" height="40"
            rx="5" fill="#fcfcfc"/>
      
      

     
   
  </g>

  <g class='  keycap'
  >

  
    <!-- Outer Border -->
    <rect x="82" y="129.25"
          width="52" height="52"
          rx="5" fill="#cccccc" class="outer border"/>
    
    <!-- Outer Fill -->
    <rect x="82" y="129.25"
          width="52" height="52"
          rx="5" fill="#cccccc"/>
    

    
      <!-- Inner Border -->
      <rect x="88" y="132.25"
            width="40" height="40"
            rx="5" fill="#fcfcfc" class="inner border"/>
      
      <!-- Inner Fill -->
      <rect x="88" y="132.25"
            width="40" height="40"
            rx="5" fill="#fcfcfc"/>
      
      

     
   
  </g>

  <g class='  keycap'
  >

  
    <!-- Outer Border -->
    <rect x="730" y="129.25"
          width="52" height="52"
          rx="5" fill="#cccccc" class="outer border"/>
    
    <!-- Outer Fill -->
    <rect x="730" y="129.25"
          width="52" height="52"
          rx="5" fill="#cccccc"/>
    

    
      <!-- Inner Border -->
      <rect x="736" y="132.25"
            width="40" height="40"
            rx="5" fill="#fcfcfc" class="inner border"/>
      
      <!-- Inner Fill -->
      <rect x="736" y="132.25"
            width="40" height="40"
            rx="5" fill="#fcfcfc"/>
      
      

     
   
  </g>

  <g class='  keycap'
  >

  
    <!-- Outer Border -->
    <rect x="784" y="129.25"
          width="52" height="52"
          rx="5" fill="#cccccc" class="outer border"/>
    
    <!-- Outer Fill -->
    <rect x="784" y="129.25"
          width="52" height="52"
          rx="5" fill="#cccccc"/>
    

    
      <!-- Inner Border -->
      <rect x="790" y="132.25"
            width="40" height="40"
            rx="5" fill="#fcfcfc" class="inner border"/>
      
      <!-- Inner Fill -->
      <rect x="790" y="132.25"
            width="40" height="40"
            rx="5" fill="#fcfcfc"/>
      
      

     
   
  </g>

  <g class='  keycap'
  >

  
    <!-- Outer Border -->
    <rect x="190" y="163"
          width="52" height="52"
          rx="5" fill="#cccccc" class="outer border"/>
    
    <!-- Outer Fill -->
    <rect x="190" y="163"
          width="52" height="52"
          rx="5" fill="#cccccc"/>
    

    
      <!-- Inner Border -->
      <rect x="196" y="166"
            width="40" height="40"
            rx="5" fill="#fcfcfc" class="inner border"/>
      
      <!-- Inner Fill -->
      <rect x="196" y="166"
            width="40" height="40"
            rx="5" fill="#fcfcfc"/>
      
      

     
   
  </g>

  <g class='  keycap'
  >

  
    <!-- Outer Border -->
    <rect x="622" y="163"
          width="52" height="52"
          rx="5" fill="#cccccc" class="outer border"/>
    
    <!-- Outer Fill -->
    <rect x="622" y="163"
          width="52" height="52"
          rx="5" fill="#cccccc"/>
    

    
      <!-- Inner Border -->
      <rect x="628" y="166"
            width="40" height="40"
            rx="5" fill="#fcfcfc" class="inner border"/>
      
      <!-- Inner Fill -->
      <rect x="628" y="166"
            width="40" height="40"
            rx="5" fill="#fcfcfc"/>
      
      

     
   
  </g>

  <g class='  keycap'
  >

  
    <!-- Outer Border -->
    <rect x="136" y="169.75"
          width="52" height="52"
          rx="5" fill="#cccccc" class="outer border"/>
    
    <!-- Outer Fill -->
    <rect x="136" y="169.75"
          width="52" height="52"
          rx="5" fill="#cccccc"/>
    

    
      <!-- Inner Border -->
      <rect x="142" y="172.75"
            width="40" height="40"
            rx="5" fill="#fcfcfc" class="inner border"/>
      
      <!-- Inner Fill -->
      <rect x="142" y="172.75"
            width="40" height="40"
            rx="5" fill="#fcfcfc"/>
      
      

     
   
  </g>

  <g class='  keycap'
  >

  
    <!-- Outer Border -->
    <rect x="244" y="169.75"
          width="52" height="52"
          rx="5" fill="#cccccc" class="outer border"/>
    
    <!-- Outer Fill -->
    <rect x="244" y="169.75"
          width="52" height="52"
          rx="5" fill="#cccccc"/>
    

    
      <!-- Inner Border -->
      <rect x="250" y="172.75"
            width="40" height="40"
            rx="5" fill="#fcfcfc" class="inner border"/>
      
      <!-- Inner Fill -->
      <rect x="250" y="172.75"
            width="40" height="40"
            rx="5" fill="#fcfcfc"/>
      
      

     
   
  </g>

  <g class='  keycap'
  >

  
    <!-- Outer Border -->
    <rect x="568" y="169.75"
          width="52" height="52"
          rx="5" fill="#cccccc" class="outer border"/>
    
    <!-- Outer Fill -->
    <rect x="568" y="169.75"
          width="52" height="52"
          rx="5" fill="#cccccc"/>
    

    
      <!-- Inner Border -->
      <rect x="574" y="172.75"
            width="40" height="40"
            rx="5" fill="#fcfcfc" class="inner border"/>
      
      <!-- Inner Fill -->
      <rect x="574" y="172.75"
            width="40" height="40"
            rx="5" fill="#fcfcfc"/>
      
      

     
   
  </g>

  <g class='  keycap'
  >

  
    <!-- Outer Border -->
    <rect x="676" y="169.75"
          width="52" height="52"
          rx="5" fill="#cccccc" class="outer border"/>
    
    <!-- Outer Fill -->
    <rect x="676" y="169.75"
          width="52" height="52"
          rx="5" fill="#cccccc"/>
    

    
      <!-- Inner Border -->
      <rect x="682" y="172.75"
            width="40" height="40"
            rx="5" fill="#fcfcfc" class="inner border"/>
      
      <!-- Inner Fill -->
      <rect x="682" y="172.75"
            width="40" height="40"
            rx="5" fill="#fcfcfc"/>
      
      

     
   
  </g>

  <g class='  keycap'
  >

  
    <!-- Outer Border -->
    <rect x="298" y="176.5"
          width="52" height="52"
          rx="5" fill="#cccccc" class="outer border"/>
    
    <!-- Outer Fill -->
    <rect x="298" y="176.5"
          width="52" height="52"
          rx="5" fill="#cccccc"/>
    

    
      <!-- Inner Border -->
      <rect x="304" y="179.5"
            width="40" height="40"
            rx="5" fill="#fcfcfc" class="inner border"/>
      
      <!-- Inner Fill -->
      <rect x="304" y="179.5"
            width="40" height="40"
            rx="5" fill="#fcfcfc"/>
      
      

     
   
  </g>

  <g class='  keycap'
  >

  
    <!-- Outer Border -->
    <rect x="514" y="176.5"
          width="52" height="52"
          rx="5" fill="#cccccc" class="outer border"/>
    
    <!-- Outer Fill -->
    <rect x="514" y="176.5"
          width="52" height="52"
          rx="5" fill="#cccccc"/>
    

    
      <!-- Inner Border -->
      <rect x="520" y="179.5"
            width="40" height="40"
            rx="5" fill="#fcfcfc" class="inner border"/>
      
      <!-- Inner Fill -->
      <rect x="520" y="179.5"
            width="40" height="40"
            rx="5" fill="#fcfcfc"/>
      
      

     
   
  </g>

  <g class='  keycap'
  >

  
    <!-- Outer Border -->
    <rect x="28" y="183.25"
          width="52" height="52"
          rx="5" fill="#cccccc" class="outer border"/>
    
    <!-- Outer Fill -->
    <rect x="28" y="183.25"
          width="52" height="52"
          rx="5" fill="#cccccc"/>
    

    
      <!-- Inner Border -->
      <rect x="34" y="186.25"
            width="40" height="40"
            rx="5" fill="#fcfcfc" class="inner border"/>
      
      <!-- Inner Fill -->
      <rect x="34" y="186.25"
            width="40" height="40"
            rx="5" fill="#fcfcfc"/>
      
      

     
   
  </g>

  <g class='  keycap'
  >

  
    <!-- Outer Border -->
    <rect x="82" y="183.25"
          width="52" height="52"
          rx="5" fill="#cccccc" class="outer border"/>
    
    <!-- Outer Fill -->
    <rect x="82" y="183.25"
          width="52" height="52"
          rx="5" fill="#cccccc"/>
    

    
      <!-- Inner Border -->
      <rect x="88" y="186.25"
            width="40" height="40"
            rx="5" fill="#fcfcfc" class="inner border"/>
      
      <!-- Inner Fill -->
      <rect x="88" y="186.25"
            width="40" height="40"
            rx="5" fill="#fcfcfc"/>
      
      

     
   
  </g>

  <g class='  keycap'
  >

  
    <!-- Outer Border -->
    <rect x="730" y="183.25"
          width="52" height="52"
          rx="5" fill="#cccccc" class="outer border"/>
    
    <!-- Outer Fill -->
    <rect x="730" y="183.25"
          width="52" height="52"
          rx="5" fill="#cccccc"/>
    

    
      <!-- Inner Border -->
      <rect x="736" y="186.25"
            width="40" height="40"
            rx="5" fill="#fcfcfc" class="inner border"/>
      
      <!-- Inner Fill -->
      <rect x="736" y="186.25"
            width="40" height="40"
            rx="5" fill="#fcfcfc"/>
      
      

     
   
  </g>

  <g class='  keycap'
  >

  
    <!-- Outer Border -->
    <rect x="784" y="183.25"
          width="52" height="52"
          rx="5" fill="#cccccc" class="outer border"/>
    
    <!-- Outer Fill -->
    <rect x="784" y="183.25"
          width="52" height="52"
          rx="5" fill="#cccccc"/>
    

    
      <!-- Inner Border -->
      <rect x="790" y="186.25"
            width="40" height="40"
            rx="5" fill="#fcfcfc" class="inner border"/>
      
      <!-- Inner Fill -->
      <rect x="790" y="186.25"
            width="40" height="40"
            rx="5" fill="#fcfcfc"/>
      
      

     
   
  </g>

  <g class=' decal keycap'
  >

   
  </g>

  <g class='  keycap'
  
     transform="rotate(30 351 229.5)"
  >

  
    <!-- Outer Border -->
    <rect x="284.5" y="271"
          width="52" height="52"
          rx="5" fill="#cccccc" class="outer border"/>
    
    <!-- Outer Fill -->
    <rect x="284.5" y="271"
          width="52" height="52"
          rx="5" fill="#cccccc"/>
    

    
      <!-- Inner Border -->
      <rect x="290.5" y="274"
            width="40" height="40"
            rx="5" fill="#fcfcfc" class="inner border"/>
      
      <!-- Inner Fill -->
      <rect x="290.5" y="274"
            width="40" height="40"
            rx="5" fill="#fcfcfc"/>
      
      

     
   
  </g>

  <g class='  keycap'
  
     transform="rotate(30 351 229.5)"
  >

  
    <!-- Outer Border -->
    <rect x="338.5" y="271"
          width="52" height="52"
          rx="5" fill="#cccccc" class="outer border"/>
    
    <!-- Outer Fill -->
    <rect x="338.5" y="271"
          width="52" height="52"
          rx="5" fill="#cccccc"/>
    

    
      <!-- Inner Border -->
      <rect x="344.5" y="274"
            width="40" height="40"
            rx="5" fill="#fcfcfc" class="inner border"/>
      
      <!-- Inner Fill -->
      <rect x="344.5" y="274"
            width="40" height="40"
            rx="5" fill="#fcfcfc"/>
      
      

     
   
  </g>

  <g class='  keycap'
  
     transform="rotate(30 351 229.5)"
  >

  
    <!-- Outer Border -->
    <rect x="392.5" y="271"
          width="52" height="52"
          rx="5" fill="#cccccc" class="outer border"/>
    
    <!-- Outer Fill -->
    <rect x="392.5" y="271"
          width="52" height="52"
          rx="5" fill="#cccccc"/>
    

    
      <!-- Inner Border -->
      <rect x="398.5" y="274"
            width="40" height="40"
            rx="5" fill="#fcfcfc" class="inner border"/>
      
      <!-- Inner Fill -->
      <rect x="398.5" y="274"
            width="40" height="40"
            rx="5" fill="#fcfcfc"/>
      
      

     
   
  </g>

  <g class='  keycap'
  
     transform="rotate(30 351 229.5)"
  >

  
    <!-- Outer Border -->
    <rect x="338.5" y="325"
          width="52" height="52"
          rx="5" fill="#cccccc" class="outer border"/>
    
    <!-- Outer Fill -->
    <rect x="338.5" y="325"
          width="52" height="52"
          rx="5" fill="#cccccc"/>
    

    
      <!-- Inner Border -->
      <rect x="344.5" y="328"
            width="40" height="40"
            rx="5" fill="#fcfcfc" class="inner border"/>
      
      <!-- Inner Fill -->
      <rect x="344.5" y="328"
            width="40" height="40"
            rx="5" fill="#fcfcfc"/>
      
      

     
   
  </g>

  <g class='  keycap'
  
     transform="rotate(30 351 229.5)"
  >

  
    <!-- Outer Border -->
    <rect x="392.5" y="325"
          width="52" height="52"
          rx="5" fill="#cccccc" class="outer border"/>
    
    <!-- Outer Fill -->
    <rect x="392.5" y="325"
          width="52" height="52"
          rx="5" fill="#cccccc"/>
    

    
      <!-- Inner Border -->
      <rect x="398.5" y="328"
            width="40" height="40"
            rx="5" fill="#fcfcfc" class="inner border"/>
      
      <!-- Inner Fill -->
      <rect x="398.5" y="328"
            width="40" height="40"
            rx="5" fill="#fcfcfc"/>
      
      

     
   
  </g>

  <g class='  keycap'
  
     transform="rotate(-30 702 229.5)"
  >

  
    <!-- Outer Border -->
    <rect x="446.5" y="176.5"
          width="52" height="52"
          rx="5" fill="#cccccc" class="outer border"/>
    
    <!-- Outer Fill -->
    <rect x="446.5" y="176.5"
          width="52" height="52"
          rx="5" fill="#cccccc"/>
    

    
      <!-- Inner Border -->
      <rect x="452.5" y="179.5"
            width="40" height="40"
            rx="5" fill="#fcfcfc" class="inner border"/>
      
      <!-- Inner Fill -->
      <rect x="452.5" y="179.5"
            width="40" height="40"
            rx="5" fill="#fcfcfc"/>
      
      

     
   
  </g>

  <g class='  keycap'
  
     transform="rotate(-30 702 229.5)"
  >

  
    <!-- Outer Border -->
    <rect x="500.5" y="176.5"
          width="52" height="52"
          rx="5" fill="#cccccc" class="outer border"/>
    
    <!-- Outer Fill -->
    <rect x="500.5" y="176.5"
          width="52" height="52"
          rx="5" fill="#cccccc"/>
    

    
      <!-- Inner Border -->
      <rect x="506.5" y="179.5"
            width="40" height="40"
            rx="5" fill="#fcfcfc" class="inner border"/>
      
      <!-- Inner Fill -->
      <rect x="506.5" y="179.5"
            width="40" height="40"
            rx="5" fill="#fcfcfc"/>
      
      

     
   
  </g>

  <g class='  keycap'
  
     transform="rotate(-30 702 229.5)"
  >

  
    <!-- Outer Border -->
    <rect x="446.5" y="230.5"
          width="52" height="52"
          rx="5" fill="#cccccc" class="outer border"/>
    
    <!-- Outer Fill -->
    <rect x="446.5" y="230.5"
          width="52" height="52"
          rx="5" fill="#cccccc"/>
    

    
      <!-- Inner Border -->
      <rect x="452.5" y="233.5"
            width="40" height="40"
            rx="5" fill="#fcfcfc" class="inner border"/>
      
      <!-- Inner Fill -->
      <rect x="452.5" y="233.5"
            width="40" height="40"
            rx="5" fill="#fcfcfc"/>
      
      

     
   
  </g>

      </g>
    </g>
  <g transform="translate(15,15)" aria-label="Zachary Charybdis base layer">
<text x="54.0" y="50.25" text-anchor="middle" font-family="-apple-system,BlinkMacSystemFont,Segoe UI,sans-serif" font-size="10" font-weight="600" fill="#172033">+</text>
<text x="108.0" y="50.25" text-anchor="middle" font-family="-apple-system,BlinkMacSystemFont,Segoe UI,sans-serif" font-size="10" font-weight="600" fill="#172033">1</text>
<text x="162.0" y="50.25" text-anchor="middle" font-family="-apple-system,BlinkMacSystemFont,Segoe UI,sans-serif" font-size="10" font-weight="600" fill="#172033">2</text>
<text x="216.0" y="50.25" text-anchor="middle" font-family="-apple-system,BlinkMacSystemFont,Segoe UI,sans-serif" font-size="10" font-weight="600" fill="#172033">3</text>
<text x="270.0" y="50.25" text-anchor="middle" font-family="-apple-system,BlinkMacSystemFont,Segoe UI,sans-serif" font-size="10" font-weight="600" fill="#172033">4</text>
<text x="324.0" y="50.25" text-anchor="middle" font-family="-apple-system,BlinkMacSystemFont,Segoe UI,sans-serif" font-size="10" font-weight="600" fill="#172033">5</text>
<text x="540.0" y="50.25" text-anchor="middle" font-family="-apple-system,BlinkMacSystemFont,Segoe UI,sans-serif" font-size="10" font-weight="600" fill="#172033">6</text>
<text x="594.0" y="50.25" text-anchor="middle" font-family="-apple-system,BlinkMacSystemFont,Segoe UI,sans-serif" font-size="10" font-weight="600" fill="#172033">7</text>
<text x="648.0" y="50.25" text-anchor="middle" font-family="-apple-system,BlinkMacSystemFont,Segoe UI,sans-serif" font-size="10" font-weight="600" fill="#172033">8</text>
<text x="702.0" y="50.25" text-anchor="middle" font-family="-apple-system,BlinkMacSystemFont,Segoe UI,sans-serif" font-size="10" font-weight="600" fill="#172033">9</text>
<text x="756.0" y="50.25" text-anchor="middle" font-family="-apple-system,BlinkMacSystemFont,Segoe UI,sans-serif" font-size="10" font-weight="600" fill="#172033">0</text>
<text x="810.0" y="50.25" text-anchor="middle" font-family="-apple-system,BlinkMacSystemFont,Segoe UI,sans-serif" font-size="10" font-weight="600" fill="#172033">-</text>
<text x="54.0" y="104.25" text-anchor="middle" font-family="-apple-system,BlinkMacSystemFont,Segoe UI,sans-serif" font-size="10" font-weight="600" fill="#172033">Tab</text>
<text x="108.0" y="104.25" text-anchor="middle" font-family="-apple-system,BlinkMacSystemFont,Segoe UI,sans-serif" font-size="10" font-weight="600" fill="#172033">Q</text>
<text x="162.0" y="104.25" text-anchor="middle" font-family="-apple-system,BlinkMacSystemFont,Segoe UI,sans-serif" font-size="10" font-weight="600" fill="#172033">W</text>
<text x="216.0" y="104.25" text-anchor="middle" font-family="-apple-system,BlinkMacSystemFont,Segoe UI,sans-serif" font-size="10" font-weight="600" fill="#172033">E</text>
<text x="270.0" y="104.25" text-anchor="middle" font-family="-apple-system,BlinkMacSystemFont,Segoe UI,sans-serif" font-size="10" font-weight="600" fill="#172033">R</text>
<text x="324.0" y="104.25" text-anchor="middle" font-family="-apple-system,BlinkMacSystemFont,Segoe UI,sans-serif" font-size="10" font-weight="600" fill="#172033">T</text>
<text x="540.0" y="104.25" text-anchor="middle" font-family="-apple-system,BlinkMacSystemFont,Segoe UI,sans-serif" font-size="10" font-weight="600" fill="#172033">Y</text>
<text x="594.0" y="104.25" text-anchor="middle" font-family="-apple-system,BlinkMacSystemFont,Segoe UI,sans-serif" font-size="10" font-weight="600" fill="#172033">U</text>
<text x="648.0" y="104.25" text-anchor="middle" font-family="-apple-system,BlinkMacSystemFont,Segoe UI,sans-serif" font-size="10" font-weight="600" fill="#172033">I</text>
<text x="702.0" y="104.25" text-anchor="middle" font-family="-apple-system,BlinkMacSystemFont,Segoe UI,sans-serif" font-size="10" font-weight="600" fill="#172033">O</text>
<text x="756.0" y="104.25" text-anchor="middle" font-family="-apple-system,BlinkMacSystemFont,Segoe UI,sans-serif" font-size="10" font-weight="600" fill="#172033">P</text>
<text x="810.0" y="104.25" text-anchor="middle" font-family="-apple-system,BlinkMacSystemFont,Segoe UI,sans-serif" font-size="10" font-weight="600" fill="#172033">\</text>
<text x="54.0" y="158.25" text-anchor="middle" font-family="-apple-system,BlinkMacSystemFont,Segoe UI,sans-serif" font-size="10" font-weight="600" fill="#172033">Esc</text>
<text x="108.0" y="158.25" text-anchor="middle" font-family="-apple-system,BlinkMacSystemFont,Segoe UI,sans-serif" font-size="10" font-weight="600" fill="#172033">A</text>
<text x="162.0" y="158.25" text-anchor="middle" font-family="-apple-system,BlinkMacSystemFont,Segoe UI,sans-serif" font-size="10" font-weight="600" fill="#172033">S</text>
<text x="216.0" y="158.25" text-anchor="middle" font-family="-apple-system,BlinkMacSystemFont,Segoe UI,sans-serif" font-size="10" font-weight="600" fill="#172033">D</text>
<text x="270.0" y="158.25" text-anchor="middle" font-family="-apple-system,BlinkMacSystemFont,Segoe UI,sans-serif" font-size="10" font-weight="600" fill="#172033">F</text>
<text x="324.0" y="158.25" text-anchor="middle" font-family="-apple-system,BlinkMacSystemFont,Segoe UI,sans-serif" font-size="10" font-weight="600" fill="#172033">G</text>
<text x="540.0" y="158.25" text-anchor="middle" font-family="-apple-system,BlinkMacSystemFont,Segoe UI,sans-serif" font-size="10" font-weight="600" fill="#172033">H</text>
<text x="594.0" y="158.25" text-anchor="middle" font-family="-apple-system,BlinkMacSystemFont,Segoe UI,sans-serif" font-size="10" font-weight="600" fill="#172033">J</text>
<text x="648.0" y="158.25" text-anchor="middle" font-family="-apple-system,BlinkMacSystemFont,Segoe UI,sans-serif" font-size="10" font-weight="600" fill="#172033">K</text>
<text x="702.0" y="158.25" text-anchor="middle" font-family="-apple-system,BlinkMacSystemFont,Segoe UI,sans-serif" font-size="10" font-weight="600" fill="#172033">L</text>
<text x="756.0" y="158.25" text-anchor="middle" font-family="-apple-system,BlinkMacSystemFont,Segoe UI,sans-serif" font-size="10" font-weight="600" fill="#172033">;</text>
<text x="810.0" y="158.25" text-anchor="middle" font-family="-apple-system,BlinkMacSystemFont,Segoe UI,sans-serif" font-size="10" font-weight="600" fill="#172033">&#x27;</text>
<text x="54.0" y="212.25" text-anchor="middle" font-family="-apple-system,BlinkMacSystemFont,Segoe UI,sans-serif" font-size="10" font-weight="600" fill="#172033">Magic</text>
<text x="108.0" y="212.25" text-anchor="middle" font-family="-apple-system,BlinkMacSystemFont,Segoe UI,sans-serif" font-size="10" font-weight="600" fill="#172033">Z</text>
<text x="162.0" y="212.25" text-anchor="middle" font-family="-apple-system,BlinkMacSystemFont,Segoe UI,sans-serif" font-size="10" font-weight="600" fill="#172033">X</text>
<text x="216.0" y="212.25" text-anchor="middle" font-family="-apple-system,BlinkMacSystemFont,Segoe UI,sans-serif" font-size="10" font-weight="600" fill="#172033">C</text>
<text x="270.0" y="212.25" text-anchor="middle" font-family="-apple-system,BlinkMacSystemFont,Segoe UI,sans-serif" font-size="10" font-weight="600" fill="#172033">V</text>
<text x="324.0" y="212.25" text-anchor="middle" font-family="-apple-system,BlinkMacSystemFont,Segoe UI,sans-serif" font-size="10" font-weight="600" fill="#172033">B</text>
<text x="540.0" y="212.25" text-anchor="middle" font-family="-apple-system,BlinkMacSystemFont,Segoe UI,sans-serif" font-size="10" font-weight="600" fill="#172033">N</text>
<text x="594.0" y="212.25" text-anchor="middle" font-family="-apple-system,BlinkMacSystemFont,Segoe UI,sans-serif" font-size="10" font-weight="600" fill="#172033">M</text>
<text x="648.0" y="212.25" text-anchor="middle" font-family="-apple-system,BlinkMacSystemFont,Segoe UI,sans-serif" font-size="10" font-weight="600" fill="#172033">,</text>
<text x="702.0" y="212.25" text-anchor="middle" font-family="-apple-system,BlinkMacSystemFont,Segoe UI,sans-serif" font-size="10" font-weight="600" fill="#172033">.</text>
<text x="756.0" y="212.25" text-anchor="middle" font-family="-apple-system,BlinkMacSystemFont,Segoe UI,sans-serif" font-size="10" font-weight="600" fill="#172033">/</text>
<text x="810.0" y="212.25" text-anchor="middle" font-family="-apple-system,BlinkMacSystemFont,Segoe UI,sans-serif" font-size="10" font-weight="600" fill="#172033">CAPS</text>
<text x="310.5" y="300" text-anchor="middle" font-family="-apple-system,BlinkMacSystemFont,Segoe UI,sans-serif" font-size="10" font-weight="600" fill="#172033" transform="rotate(30 351 229.5)">BSPC</text>
<text x="364.5" y="300" text-anchor="middle" font-family="-apple-system,BlinkMacSystemFont,Segoe UI,sans-serif" font-size="10" font-weight="600" fill="#172033" transform="rotate(30 351 229.5)">SFT</text>
<text x="418.5" y="300" text-anchor="middle" font-family="-apple-system,BlinkMacSystemFont,Segoe UI,sans-serif" font-size="10" font-weight="600" fill="#172033" transform="rotate(30 351 229.5)">SYM</text>
<text x="472.5" y="205.5" text-anchor="middle" font-family="-apple-system,BlinkMacSystemFont,Segoe UI,sans-serif" font-size="10" font-weight="600" fill="#172033" transform="rotate(-30 702 229.5)">NUM</text>
<text x="526.5" y="205.5" text-anchor="middle" font-family="-apple-system,BlinkMacSystemFont,Segoe UI,sans-serif" font-size="10" font-weight="600" fill="#172033" transform="rotate(-30 702 229.5)">ENT</text>
<text x="364.5" y="354" text-anchor="middle" font-family="-apple-system,BlinkMacSystemFont,Segoe UI,sans-serif" font-size="10" font-weight="600" fill="#172033" transform="rotate(30 351 229.5)">NO</text>
<text x="418.5" y="354" text-anchor="middle" font-family="-apple-system,BlinkMacSystemFont,Segoe UI,sans-serif" font-size="10" font-weight="600" fill="#172033" transform="rotate(30 351 229.5)">SPACE</text>
<text x="472.5" y="259.5" text-anchor="middle" font-family="-apple-system,BlinkMacSystemFont,Segoe UI,sans-serif" font-size="10" font-weight="600" fill="#172033" transform="rotate(-30 702 229.5)">LLCK</text>
</g>
<text x="20" y="420" font-family="-apple-system,BlinkMacSystemFont,Segoe UI,sans-serif" font-size="11" fill="#64748b">Zachary · Charybdis 4x6 · Base</text>
</svg>
